<svg width="14" height="14" viewBox="0 0 14 14" fill="none" xmlns="http://www.w3.org/2000/svg">
<path d="M12.6092 2.70869C12.5419 2.55311 12.4303 2.42075 12.2883 2.32809C12.1464 2.23543 11.9803 2.18654 11.8108 2.18751H2.18578C2.01643 2.18785 1.85081 2.23732 1.70902 2.32992C1.56724 2.42253 1.45537 2.55429 1.38699 2.70922C1.31862 2.86416 1.29667 3.0356 1.32381 3.20276C1.35096 3.36992 1.42603 3.52562 1.53992 3.65095L1.54429 3.65587L5.24828 7.61087V11.8125C5.24824 11.9709 5.29118 12.1263 5.37252 12.2622C5.45387 12.398 5.57056 12.5093 5.71016 12.5841C5.84976 12.6588 6.00704 12.6943 6.16522 12.6867C6.3234 12.6791 6.47655 12.6287 6.60836 12.541L8.35836 11.3739C8.47832 11.294 8.57669 11.1857 8.64471 11.0586C8.71273 10.9315 8.74831 10.7896 8.74828 10.6455V7.61087L12.4528 3.65587L12.4572 3.65095C12.5723 3.52619 12.6481 3.37029 12.6751 3.20272C12.7021 3.03514 12.6792 2.86332 12.6092 2.70869ZM7.9925 7.14111C7.91681 7.22135 7.87423 7.32722 7.87328 7.43751V10.6455L6.12328 11.8125V7.43751C6.12331 7.32642 6.08108 7.21947 6.00515 7.13837L2.18578 3.06251H11.8108L7.9925 7.14111Z" fill="#565D6D"/>
</svg>
