<svg width="16" height="16" viewBox="0 0 16 16" fill="none" xmlns="http://www.w3.org/2000/svg">
<path d="M14.2824 9.71436L10.2824 9.71436V11.4286L5.71094 11.4286V9.71436L1.71094 9.71436" stroke="#0691E2" stroke-width="1.37143" stroke-miterlimit="10"/>
<path d="M8 7.4285L8 2.28564" stroke="#0691E2" stroke-width="1.37143" stroke-miterlimit="10"/>
<path d="M11.7441 4.57129C11.9842 4.57099 12.2184 4.64635 12.4133 4.78668C12.6082 4.927 12.7539 5.12516 12.8298 5.353L14.2824 9.71415V13.1427C14.2824 13.4458 14.162 13.7365 13.9476 13.9508C13.7333 14.1652 13.4426 14.2856 13.1395 14.2856L2.85379 14.2856C2.55069 14.2856 2.26 14.1652 2.04567 13.9508C1.83135 13.7365 1.71094 13.4458 1.71094 13.1427L1.71094 9.71415L3.16465 5.353C3.24048 5.12534 3.38604 4.92732 3.58071 4.78701C3.77537 4.64671 4.00926 4.57123 4.24922 4.57129" stroke="#0691E2" stroke-width="1.37143" stroke-miterlimit="10" stroke-linecap="square"/>
<path d="M6.28906 3.99993L8.00335 2.28564L9.71763 3.99993" stroke="#0691E2" stroke-width="1.37143" stroke-miterlimit="10" stroke-linecap="square"/>
</svg>
