<svg width="16" height="16" viewBox="0 0 16 16" fill="none" xmlns="http://www.w3.org/2000/svg">
<path d="M2.98118 9.59851L3.42358 9.21245C3.60865 9.05096 3.64559 8.77741 3.50999 8.5726C3.44072 8.46798 3.39218 8.35103 3.36701 8.2281L3.32227 8.00963C3.32055 8.00123 3.31968 7.99267 3.31968 7.98409L3.31968 7.46794L3.31968 7.20223C3.31968 7.09281 3.32866 6.98357 3.34653 6.87562L3.37002 6.73372C3.39335 6.59277 3.43172 6.45472 3.48447 6.32194L3.51707 6.23987C3.55629 6.14115 3.60331 6.04572 3.65768 5.95447L3.83229 5.66144L4.0886 5.23132L4.43034 4.8012L4.63234 4.59781C4.72527 4.50423 4.82723 4.42008 4.93673 4.34658L5.28469 4.11301L5.48516 3.9919C5.63564 3.90099 5.79745 3.83031 5.96641 3.78171L6.3099 3.68289L6.9688 3.5502C7.09878 3.52403 7.23104 3.51084 7.36363 3.51084L7.68531 3.51084C7.84992 3.51084 8.0139 3.53116 8.17353 3.57134L8.61665 3.68289L9.19696 3.87766C9.32238 3.91976 9.44333 3.9742 9.558 4.04018L9.8185 4.19006C9.92832 4.25325 10.0319 4.32673 10.1278 4.40951L10.373 4.62109C10.5114 4.7406 10.6329 4.87854 10.7338 5.03105L11.0943 5.57542L11.3096 6.00911C11.3935 6.17793 11.453 6.35775 11.4865 6.54323L11.575 7.0336C11.5962 7.15088 11.6069 7.26982 11.6069 7.389L11.6069 8.07011L11.5503 8.52602C11.5311 8.68035 11.494 8.83192 11.4397 8.97765L11.321 9.29654C11.2838 9.39635 11.2387 9.49303 11.1861 9.58566L11.0221 9.87481C10.9564 9.99043 10.8795 10.0992 10.7923 10.1995L10.4195 10.6285C10.3568 10.7006 10.289 10.7682 10.2166 10.8307L9.91419 11.0917C9.79007 11.1988 9.65324 11.2903 9.5068 11.364L9.35157 11.4422C9.1479 11.5447 8.9282 11.6116 8.70197 11.6401L8.36034 11.6831L7.82768 11.7427C7.67073 11.7603 7.51225 11.7592 7.35556 11.7395L6.96101 11.6898C6.92568 11.6854 6.89073 11.6783 6.85643 11.6688C6.62768 11.605 6.38221 11.6568 6.19877 11.8076L5.79657 12.1383C5.53659 12.352 5.61326 12.7683 5.93234 12.8754C6.10687 12.934 6.22447 13.0975 6.22447 13.2816L6.22447 13.6527C6.22447 14.1743 6.64729 14.5971 7.16888 14.5971L7.68399 14.5971C8.22523 14.5971 8.66824 14.1665 8.68359 13.6254L8.68475 13.5846C8.69539 13.2094 8.91514 12.8719 9.25385 12.7103L9.70677 12.4943C10.0796 12.3165 10.5233 12.3862 10.8237 12.6697L10.947 12.7861C11.3556 13.1718 12.0017 13.1453 12.3773 12.7273L12.658 12.4149C13.0196 12.0125 12.982 11.392 12.5743 11.0363C12.2533 10.7561 12.1528 10.2992 12.3266 9.91013L12.5384 9.4363C12.6993 9.07619 13.0569 8.84433 13.4514 8.84433L13.5971 8.84433C14.1494 8.84433 14.5971 8.39661 14.5971 7.84433L14.5971 7.43566C14.5971 6.88337 14.1494 6.43566 13.5971 6.43566L13.4817 6.43566C13.072 6.43566 12.7036 6.18567 12.5524 5.80485L12.3492 5.29338C12.2107 4.9448 12.3005 4.54697 12.5752 4.29162C12.9387 3.95378 12.9642 3.38692 12.6325 3.0178L12.2656 2.60948C11.9003 2.20289 11.2761 2.165 10.8643 2.5244L10.7733 2.60382C10.4972 2.84473 10.1115 2.91537 9.76797 2.78793L9.35428 2.63447C8.96224 2.48904 8.70208 2.11504 8.70208 1.6969L8.70208 1.5C8.70208 0.947716 8.25437 0.500001 7.70208 0.500001L7.22447 0.500001C6.67219 0.500001 6.22447 0.947716 6.22447 1.5L6.22447 1.6969C6.22447 2.11504 5.96431 2.48904 5.57227 2.63447L5.20485 2.77077C4.83722 2.90714 4.42382 2.81608 4.14751 2.53787L4.11465 2.50478C3.72358 2.11102 3.08666 2.11102 2.69559 2.50478L2.31083 2.89219C1.92354 3.28215 1.92354 3.91158 2.31083 4.30154L2.34026 4.33117C2.62324 4.6161 2.70833 5.04267 2.55633 5.41436L2.46318 5.64212C2.30947 6.01801 1.94369 6.26361 1.53759 6.26361L1.50012 6.26361C0.947786 6.26361 0.500052 6.71139 0.500118 7.26373L0.500218 8.11356C0.500281 8.64394 0.92429 9.07698 1.45455 9.08822L1.80223 9.09559C1.99586 9.09969 2.16699 9.22256 2.23278 9.40473C2.34467 9.71455 2.73299 9.8151 2.98118 9.59851Z" stroke="#072645"/>
</svg>
